# This file uses centimeters as units for non-parametric coordinates.

mtllib BarnWindow.mtl
g default
v 0.042416 8.171565 3.225657
v 0.331167 8.171565 3.213186
v -0.258383 8.171565 -3.739328
v 0.030367 8.171565 -3.751799
v 0.042423 -0.268984 3.225656
v 0.331180 -0.268984 3.213186
v -0.258377 -0.268984 -3.739329
v 0.030380 -0.268984 -3.751799
v -0.228298 8.171565 -3.042860
v 0.060459 8.171565 -3.055331
v 0.060459 -0.268984 -3.055331
v -0.228298 -0.268984 -3.042860
v 0.015351 8.171565 2.598808
v 0.304108 8.171565 2.586337
v 0.304108 -0.268984 2.586337
v 0.015351 -0.268984 2.598808
v 0.042423 7.628637 3.225656
v 0.015351 7.628637 2.598808
v -0.228298 7.628637 -3.042860
v -0.258377 7.628637 -3.739329
v 0.030380 7.628637 -3.751799
v 0.060459 7.628637 -3.055331
v 0.304108 7.628637 2.586337
v 0.331180 7.628637 3.213186
v 0.042423 0.327838 3.225656
v 0.331180 0.327838 3.213186
v 0.304108 0.327840 2.586337
v 0.060459 0.327840 -3.055331
v 0.030380 0.327840 -3.751799
v -0.258377 0.327840 -3.739329
v -0.228298 0.327838 -3.042860
v 0.015351 0.327838 2.598808
v 0.226271 7.628637 -3.760259
v 0.256350 7.628637 -3.063791
v 0.256350 0.327840 -3.063791
v 0.226271 0.327840 -3.760259
v 0.527071 0.327838 3.204726
v 0.499999 0.327840 2.577877
v 0.499999 7.628637 2.577877
v 0.527071 7.628637 3.204726
v 0.256350 8.171565 -3.063791
v 0.226271 8.171565 -3.760259
v 0.499999 8.171565 2.577877
v 0.527071 8.171565 3.204726
v 0.499999 -0.268984 2.577877
v 0.527071 -0.268984 3.204726
v 0.256350 -0.268984 -3.063791
v 0.226271 -0.268984 -3.760259
v -0.450930 0.327840 -3.731013
v -0.420851 0.327838 -3.034545
v -0.420851 7.628637 -3.034545
v -0.450930 7.628637 -3.731013
v -0.150130 7.628637 3.233972
v -0.177202 7.628637 2.607124
v -0.177202 0.327838 2.607124
v -0.150130 0.327838 3.233972
v -0.177202 8.171565 2.607124
v -0.150130 8.171565 3.233972
v -0.420851 8.171565 -3.034545
v -0.450930 8.171565 -3.731013
v -0.450930 -0.268984 -3.731013
v -0.420851 -0.268984 -3.034545
v -0.177202 -0.268984 2.607124
v -0.150130 -0.268984 3.233972
v -0.258377 3.978240 -3.739329
v 0.030380 3.978240 -3.751799
v 0.226271 3.978240 -3.760259
v 0.256350 3.978240 -3.063791
v 0.060459 3.978240 -3.055331
v 0.304108 3.978240 2.586337
v 0.499999 3.978240 2.577877
v 0.527071 3.978239 3.204726
v 0.331180 3.978239 3.213186
v 0.042423 3.978239 3.225656
v -0.150130 3.978239 3.233972
v -0.177202 3.978239 2.607124
v 0.015351 3.978239 2.598808
v -0.228298 3.978239 -3.042860
v -0.420851 3.978239 -3.034545
v -0.450930 3.978240 -3.731013
v 0.042423 3.248160 3.225656
v 0.331180 3.248160 3.213186
v 0.527071 3.248160 3.204726
v 0.499999 3.248160 2.577877
v 0.304108 3.248160 2.586337
v 0.060459 3.248160 -3.055331
v 0.256350 3.248160 -3.063791
v 0.226271 3.248160 -3.760259
v 0.030380 3.248160 -3.751799
v -0.258377 3.248160 -3.739329
v -0.450930 3.248160 -3.731013
v -0.420851 3.248160 -3.034545
v -0.228298 3.248160 -3.042860
v 0.015351 3.248160 2.598808
v -0.177202 3.248160 2.607124
v -0.150130 3.248160 3.233972
v -0.270562 8.109065 -4.021328
v 0.018193 8.109065 -4.033799
v 0.018201 7.691137 -4.033799
v -0.270556 7.691137 -4.021329
v 0.018201 0.259135 -4.033799
v -0.270556 0.259135 -4.021329
v 0.018201 -0.200278 -4.033799
v -0.270556 -0.200278 -4.021329
v -0.276385 8.109065 -4.156149
v 0.012370 8.109065 -4.168620
v 0.012379 7.691137 -4.168620
v -0.276378 7.691137 -4.156150
v -0.012053 0.220263 -4.167565
v -0.251944 0.220263 -4.157205
v -0.012053 -0.161406 -4.167565
v -0.251944 -0.161406 -4.157205
v -0.860021 8.109054 -3.995871
v -0.860012 7.691125 -3.995872
v -0.865844 8.109054 -4.130692
v -0.865835 7.691125 -4.130693
v -0.855105 0.259135 -4.101388
v -0.855105 -0.200278 -4.101388
v -0.836494 0.220263 -4.237264
v -0.836494 -0.161406 -4.237264
vt 0.375000 0.000000
vt 0.625000 0.000000
vt 0.624977 0.250003
vt 0.375019 0.250003
vt 0.624975 0.500000
vt 0.375019 0.500000
vt 0.625000 0.750000
vt 0.375000 0.750000
vt 0.625000 1.000000
vt 0.375000 1.000000
vt 0.875000 0.000000
vt 0.875000 0.250000
vt 0.125000 0.000000
vt 0.125000 0.250000
vt 0.150002 0.250000
vt 0.624975 0.475000
vt 0.849998 0.250000
vt 0.625000 0.775000
vt 0.850000 0.000000
vt 0.150000 0.000000
vt 0.375000 0.775000
vt 0.352517 0.250003
vt 0.624977 0.272503
vt 0.647479 0.250002
vt 0.625000 0.977500
vt 0.647500 0.000000
vt 0.352500 0.000000
vt 0.375000 0.977500
vt 0.375018 0.233922
vt 0.352516 0.233922
vt 0.150002 0.233919
vt 0.125000 0.233919
vt 0.375018 0.516081
vt 0.624977 0.516081
vt 0.875000 0.233919
vt 0.849998 0.233919
vt 0.647480 0.233921
vt 0.624978 0.233922
vt 0.375001 0.017677
vt 0.624998 0.017677
vt 0.647498 0.017677
vt 0.850000 0.017677
vt 0.624998 0.732323
vt 0.875000 0.017677
vt 0.125000 0.017677
vt 0.375001 0.732323
vt 0.150000 0.017677
vt 0.352501 0.017677
vt 0.849998 0.233919
vt 0.850000 0.017677
vt 0.875000 0.017677
vt 0.875000 0.233919
vt 0.647498 0.017677
vt 0.647480 0.233921
vt 0.624978 0.233922
vt 0.624998 0.017677
vt 0.875000 0.250000
vt 0.849998 0.250000
vt 0.647479 0.250002
vt 0.624977 0.250003
vt 0.625000 0.000000
vt 0.647500 0.000000
vt 0.850000 0.000000
vt 0.875000 0.000000
vt 0.150000 0.017677
vt 0.150002 0.233919
vt 0.125000 0.233919
vt 0.125000 0.017677
vt 0.352516 0.233922
vt 0.352501 0.017677
vt 0.375001 0.017677
vt 0.375018 0.233922
vt 0.375019 0.250003
vt 0.352517 0.250003
vt 0.150002 0.250000
vt 0.125000 0.250000
vt 0.125000 0.000000
vt 0.150000 0.000000
vt 0.352500 0.000000
vt 0.375000 0.000000
vt 0.125000 0.125798
vt 0.375009 0.624202
vt 0.624987 0.624202
vt 0.875000 0.125798
vt 0.875000 0.125798
vt 0.849999 0.125798
vt 0.849999 0.125798
vt 0.647489 0.125799
vt 0.647489 0.125799
vt 0.624988 0.125799
vt 0.624988 0.125799
vt 0.375010 0.125800
vt 0.375010 0.125800
vt 0.352509 0.125800
vt 0.352509 0.125800
vt 0.150001 0.125798
vt 0.150001 0.125798
vt 0.125000 0.125798
vt 0.375008 0.104175
vt 0.624990 0.104175
vt 0.624990 0.104175
vt 0.647491 0.104175
vt 0.647491 0.104175
vt 0.849999 0.104174
vt 0.849999 0.104174
vt 0.875000 0.104174
vt 0.624990 0.645826
vt 0.875000 0.104174
vt 0.125000 0.104174
vt 0.375008 0.645826
vt 0.125000 0.104174
vt 0.150001 0.104174
vt 0.150001 0.104174
vt 0.352507 0.104175
vt 0.352507 0.104175
vt 0.375008 0.104175
vt 0.375019 0.500000
vt 0.624975 0.500000
vt 0.624977 0.516081
vt 0.375018 0.516081
vt 0.375001 0.732323
vt 0.624998 0.732323
vt 0.625000 0.750000
vt 0.375000 0.750000
vt 0.375019 0.500000
vt 0.624975 0.500000
vt 0.624977 0.516081
vt 0.375018 0.516081
vt 0.375001 0.732323
vt 0.624998 0.732323
vt 0.625000 0.750000
vt 0.375000 0.750000
vt 0.375018 0.516081
vt 0.375019 0.500000
vt 0.375019 0.500000
vt 0.375018 0.516081
vt 0.375000 0.750000
vt 0.375001 0.732323
vt 0.375001 0.732323
vt 0.375000 0.750000
vn 0.043147 0.000000 0.999069
vn 0.043147 0.000000 0.999069
vn 0.043147 0.000000 0.999069
vn 0.043147 0.000000 0.999069
vn -0.043147 0.000000 -0.999069
vn -0.043147 0.000000 -0.999069
vn -0.043147 0.000000 -0.999069
vn -0.043147 0.000000 -0.999069
vn -0.002050 -0.998870 -0.047474
vn -0.002039 -0.998883 -0.047211
vn 0.000000 -1.000000 0.000000
vn 0.000000 -1.000000 0.000000
vn 0.999069 0.000000 -0.043147
vn 0.999069 0.000000 -0.043147
vn 0.999069 0.000000 -0.043147
vn 0.999069 0.000000 -0.043147
vn -0.999069 0.000000 0.043147
vn -0.999069 0.000000 0.043147
vn -0.999069 0.000000 0.043147
vn -0.999069 0.000000 0.043147
vn -0.000000 1.000000 -0.000000
vn -0.000000 1.000000 -0.000000
vn -0.001855 0.999075 -0.042955
vn -0.001866 0.999065 -0.043196
vn 0.000000 1.000000 0.000000
vn 0.000000 1.000000 0.000000
vn 0.999069 0.000000 -0.043147
vn 0.999069 0.000000 -0.043147
vn 0.999069 0.000000 -0.043147
vn 0.999069 0.000000 -0.043147
vn 0.000000 -1.000000 0.000000
vn 0.000000 -1.000000 0.000000
vn -0.999069 0.000000 0.043147
vn -0.999069 0.000000 0.043147
vn -0.999069 0.000000 0.043147
vn -0.999069 0.000000 0.043147
vn 0.000000 1.000000 0.000000
vn 0.000000 1.000000 0.000001
vn 0.999069 0.000000 -0.043147
vn 0.999069 0.000000 -0.043147
vn 0.999069 0.000000 -0.043147
vn 0.999069 0.000000 -0.043147
vn 0.000000 -1.000000 0.000000
vn 0.000000 -1.000000 0.000000
vn -0.999069 0.000000 0.043147
vn -0.999069 0.000000 0.043147
vn -0.999069 0.000000 0.043147
vn -0.999069 0.000000 0.043147
vn -0.999069 0.000000 0.043147
vn -0.999069 0.000000 0.043147
vn -0.999069 0.000000 0.043147
vn -0.999069 0.000000 0.043147
vn -0.999069 0.000000 0.043147
vn -0.999069 0.000000 0.043147
vn -0.999069 0.000000 0.043147
vn -0.999069 0.000000 0.043147
vn -0.999069 0.000000 0.043147
vn -0.999069 0.000000 0.043147
vn -0.999069 0.000000 0.043147
vn -0.999069 0.000000 0.043147
vn -0.043147 0.000000 -0.999069
vn -0.043147 0.000000 -0.999069
vn -0.043147 0.000000 -0.999069
vn -0.043147 0.000000 -0.999069
vn 0.999069 0.000000 -0.043147
vn 0.999069 0.000000 -0.043147
vn 0.999069 0.000000 -0.043147
vn 0.999069 0.000000 -0.043147
vn 0.999069 0.000000 -0.043147
vn 0.999069 0.000000 -0.043147
vn 0.999069 0.000000 -0.043147
vn 0.999069 0.000000 -0.043147
vn 0.999069 0.000000 -0.043147
vn 0.999069 0.000000 -0.043147
vn 0.999069 0.000000 -0.043147
vn 0.999069 0.000000 -0.043147
vn 0.043147 0.000000 0.999069
vn 0.043147 0.000000 0.999069
vn 0.043147 0.000000 0.999069
vn 0.043147 0.000000 0.999069
vn 0.043147 0.000000 0.999069
vn 0.043147 0.000000 0.999069
vn 0.043147 0.000000 0.999069
vn 0.043147 0.000000 0.999069
vn 0.999069 0.000000 -0.043147
vn 0.999069 0.000000 -0.043147
vn 0.999069 0.000000 -0.043147
vn 0.999069 0.000000 -0.043147
vn 0.999069 0.000000 -0.043147
vn 0.999069 0.000000 -0.043147
vn 0.999069 0.000000 -0.043147
vn 0.999069 0.000000 -0.043147
vn 0.999069 0.000000 -0.043147
vn 0.999069 0.000000 -0.043147
vn 0.999069 0.000000 -0.043147
vn 0.999069 0.000000 -0.043147
vn 0.084241 0.000000 -0.996445
vn -0.043147 0.000000 -0.999069
vn -0.043147 0.000000 -0.999069
vn 0.084241 0.000000 -0.996445
vn -0.999069 0.000000 0.043147
vn -0.999069 0.000000 0.043147
vn -0.999069 0.000000 0.043147
vn -0.999069 0.000000 0.043147
vn -0.999069 0.000000 0.043147
vn -0.999069 0.000000 0.043147
vn -0.999069 0.000000 0.043147
vn -0.999069 0.000000 0.043147
vn -0.999069 0.000000 0.043147
vn -0.999069 0.000000 0.043147
vn -0.999069 0.000000 0.043147
vn -0.999069 0.000000 0.043147
vn 0.043147 0.000000 0.999069
vn 0.043147 0.000000 0.999069
vn 0.043147 0.000000 0.999069
vn 0.043147 0.000000 0.999069
vn -0.043147 0.000000 -0.999069
vn -0.043147 0.000000 -0.999069
vn -0.043147 0.000000 -0.999069
vn -0.043147 0.000000 -0.999069
vn -0.043147 0.000000 -0.999069
vn -0.043147 0.000000 -0.999069
vn 0.043147 0.000000 0.999069
vn 0.043147 0.000000 0.999069
vn -0.043147 0.000000 -0.999069
vn -0.043147 0.000000 -0.999069
vn -0.043147 0.000000 -0.999069
vn -0.043147 0.000000 -0.999069
vn 0.000000 1.000000 0.000000
vn 0.000000 1.000000 0.000000
vn 0.000000 -1.000000 0.000000
vn 0.000000 -1.000000 0.000000
vn 0.000000 -1.000000 0.000000
vn 0.000000 -1.000000 0.000000
vn 0.000000 1.000000 0.000000
vn 0.000000 1.000000 0.000000
vn 0.043147 0.000000 0.999069
vn 0.043147 0.000000 0.999069
vn 0.000000 -1.000000 0.000000
vn 0.000000 -1.000000 0.000000
vn 0.043147 0.000000 0.999069
vn 0.043147 0.000000 0.999069
vn 0.000000 1.000000 0.000000
vn 0.000000 1.000000 0.000000
vn 0.000000 1.000000 0.000000
vn 0.000000 1.000000 0.000000
vn 0.000000 -1.000000 0.000000
vn 0.000000 -1.000000 0.000000
vn -0.043147 0.000000 -0.999069
vn -0.043147 0.000000 -0.999069
vn -0.043147 0.000000 -0.999069
vn -0.043147 0.000000 -0.999069
vn 0.043147 0.000000 0.999069
vn 0.043147 0.000000 0.999069
vn 0.043147 0.000000 0.999069
vn 0.043147 0.000000 0.999069
vn -0.043147 0.000000 -0.999069
vn -0.043147 0.000000 -0.999069
vn -0.043147 0.000000 -0.999069
vn -0.043147 0.000000 -0.999069
vn -0.043147 0.000000 -0.999069
vn -0.043147 0.000000 -0.999069
vn 0.043147 0.000000 0.999069
vn 0.043147 0.000000 0.999069
vn 0.043147 0.000000 0.999069
vn 0.043147 0.000000 0.999069
vn 0.000000 1.000000 0.000000
vn 0.000000 1.000000 0.000002
vn 0.000000 -1.000000 0.000000
vn 0.000000 -1.000000 0.000000
vn 0.000000 -1.000000 0.000000
vn 0.000000 -1.000000 0.000000
vn -0.000000 1.000000 -0.000000
vn -0.000000 1.000000 -0.000002
vn -0.043147 0.000000 -0.999069
vn -0.043147 0.000000 -0.999069
vn -0.043147 0.000000 -0.999069
vn -0.043147 0.000000 -0.999069
vn 0.000000 -1.000000 0.000000
vn 0.000000 -1.000000 0.000000
vn -0.043147 0.000000 -0.999069
vn -0.043147 0.000000 -0.999069
vn -0.043147 0.000000 -0.999069
vn -0.043147 0.000000 -0.999069
vn 0.000000 1.000000 0.000000
vn 0.000000 1.000000 0.000000
vn 0.000000 1.000000 0.000000
vn 0.000000 1.000000 0.000000
vn 0.000000 -1.000000 0.000000
vn 0.000000 -1.000000 0.000000
vn 0.043147 0.000000 0.999069
vn 0.043147 0.000000 0.999069
vn -0.043147 0.000000 -0.999069
vn -0.043147 0.000000 -0.999069
vn -0.043147 0.000000 -0.999069
vn 0.999069 0.000000 -0.043147
vn 0.999069 0.000000 -0.043147
vn 0.999069 0.000000 -0.043147
vn 0.999069 0.000000 -0.043147
vn 0.043147 0.000000 0.999069
vn 0.043147 0.000000 0.999069
vn 0.043147 0.000000 0.999069
vn 0.043147 0.000000 0.999069
vn 0.999069 0.000000 -0.043147
vn 0.999069 0.000000 -0.043147
vn 0.999069 0.000000 -0.043147
vn 0.999069 0.000000 -0.043147
vn -0.043147 0.000000 -0.999069
vn -0.043147 0.000000 -0.999069
vn -0.043147 0.000000 -0.999069
vn -0.043147 0.000000 -0.999069
vn 0.999069 0.000000 -0.043147
vn 0.999069 0.000000 -0.043147
vn 0.999069 0.000000 -0.043147
vn 0.999069 0.000000 -0.043147
vn 0.043147 0.000000 0.999069
vn 0.043147 0.000000 0.999069
vn 0.043147 0.000000 0.999069
vn 0.043147 0.000000 0.999069
vn -0.999069 0.000000 0.043147
vn -0.999069 0.000000 0.043147
vn -0.999069 0.000000 0.043147
vn -0.999069 0.000000 0.043147
vn -0.043147 0.000000 -0.999069
vn -0.043147 0.000000 -0.999069
vn -0.043147 0.000000 -0.999069
vn -0.043147 0.000000 -0.999069
vn -0.999069 0.000000 0.043147
vn -0.999069 0.000000 0.043147
vn -0.999069 0.000000 0.043147
vn -0.999069 0.000000 0.043147
vn 0.043147 0.000000 0.999069
vn 0.043147 0.000000 0.999069
vn 0.043147 0.000000 0.999069
vn 0.043147 0.000000 0.999069
vn -0.999069 0.000000 0.043147
vn -0.999069 0.000000 0.043147
vn -0.999069 0.000000 0.043147
vn -0.999069 0.000000 0.043147
vn -0.043147 0.000000 -0.999069
vn 0.043147 0.000000 0.999069
vn 0.043147 0.000000 0.999069
vn 0.043147 0.000000 0.999069
vn 0.999069 0.000000 -0.043147
vn 0.999069 0.000000 -0.043147
vn 0.999069 0.000000 -0.043147
vn 0.999069 0.000000 -0.043147
vn -0.043147 0.000000 -0.999069
vn -0.043147 0.000000 -0.999069
vn -0.043147 0.000000 -0.999069
vn -0.043147 0.000000 -0.999069
vn 0.999069 0.000000 -0.043147
vn 0.999069 0.000000 -0.043147
vn 0.999069 0.000000 -0.043147
vn 0.999069 0.000000 -0.043147
vn 0.043147 0.000000 0.999069
vn 0.043147 0.000000 0.999069
vn 0.043147 0.000000 0.999069
vn 0.043147 0.000000 0.999069
vn 0.999069 0.000000 -0.043147
vn 0.999069 0.000000 -0.043147
vn 0.999069 0.000000 -0.043147
vn 0.999069 0.000000 -0.043147
vn -0.043147 0.000000 -0.999069
vn -0.043147 0.000000 -0.999069
vn -0.043147 0.000000 -0.999069
vn -0.043147 0.000000 -0.999069
vn -0.999069 0.000000 0.043147
vn -0.999069 0.000000 0.043147
vn -0.999069 0.000000 0.043147
vn -0.999069 0.000000 0.043147
vn 0.043147 0.000000 0.999069
vn 0.043147 0.000000 0.999069
vn 0.043147 0.000000 0.999069
vn 0.043147 0.000000 0.999069
vn -0.999069 0.000000 0.043147
vn -0.999069 0.000000 0.043147
vn -0.999069 0.000000 0.043147
vn -0.999069 0.000000 0.043147
vn -0.043147 0.000000 -0.999069
vn -0.043147 0.000000 -0.999069
vn -0.043147 0.000000 -0.999069
vn -0.043147 0.000000 -0.999069
vn -0.999069 0.000000 0.043147
vn -0.999069 0.000000 0.043147
vn -0.999069 0.000000 0.043147
vn -0.999069 0.000000 0.043147
vn 0.043147 0.000000 0.999069
vn -0.006392 0.988965 -0.148014
vn -0.003885 0.995954 -0.089779
vn 0.999069 0.000022 -0.043139
vn 0.999069 0.000022 -0.043139
vn 0.999069 0.000022 -0.043142
vn 0.999069 0.000022 -0.043142
vn -0.009328 -0.976352 -0.215985
vn -0.009328 -0.976352 -0.215985
vn -0.003870 -0.995954 -0.089779
vn -0.006392 -0.988965 -0.148012
vn -0.999069 -0.000014 0.043147
vn -0.999069 -0.000014 0.043147
vn -0.999069 -0.000014 0.043147
vn -0.999069 -0.000014 0.043147
vn -0.010204 0.971630 -0.236284
vn -0.010204 0.971630 -0.236284
vn -0.010703 0.968747 -0.247820
vn 0.008816 0.966358 -0.257052
vn 0.999069 0.000000 -0.043147
vn 0.999069 0.000000 -0.043147
vn 0.996284 0.000000 -0.086126
vn 0.996284 0.000000 -0.086126
vn 0.008816 -0.966358 -0.257052
vn -0.010703 -0.968747 -0.247819
vn -0.999069 0.000000 0.043147
vn -0.999069 0.000000 0.043147
vn -0.999069 0.000000 0.043147
vn -0.999069 0.000000 0.043147
vn 0.000000 1.000000 0.000000
vn -0.000013 1.000000 0.000001
vn 0.999069 0.000022 -0.043147
vn 0.999069 0.000022 -0.043147
vn 0.000013 -1.000000 -0.000001
vn 0.000000 -1.000000 0.000000
vn -0.999069 -0.000022 0.043147
vn -0.999069 -0.000022 0.043147
vn -0.999069 -0.000022 0.043147
vn -0.999069 -0.000022 0.043147
vn -0.011943 0.960928 -0.276541
vn 0.021376 0.961981 -0.272279
vn 0.975364 0.000000 -0.220601
vn 0.975364 0.000000 -0.220601
vn 0.021376 -0.961981 -0.272279
vn -0.011943 -0.960928 -0.276540
vn -0.990749 0.000000 -0.135705
vn -0.990749 0.000000 -0.135705
vn -0.990749 0.000000 -0.135705
vn -0.990749 0.000000 -0.135705
vn 0.043147 0.000000 0.999069
vn 0.043147 0.000000 0.999069
vn 0.043147 0.000000 0.999069
vn 0.043147 0.000000 0.999069
vn -0.000019 1.000000 0.000001
vn -0.000019 1.000000 0.000001
vn -0.043147 0.000000 -0.999069
vn -0.043147 0.000000 -0.999069
vn 0.000019 -1.000000 -0.000001
vn 0.000019 -1.000000 -0.000001
vn -0.135693 0.000000 0.990751
vn -0.135693 0.000000 0.990751
vn -0.135693 0.000000 0.990751
vn -0.135693 0.000000 0.990751
vn 0.037003 0.962101 -0.270173
vn 0.037003 0.962100 -0.270173
vn 0.135693 0.000000 -0.990751
vn 0.135693 0.000000 -0.990751
vn 0.037003 -0.962100 -0.270173
vn 0.037003 -0.962100 -0.270173
s 1
g pCube122
usemtl lambert6SG
f 81/99/1 82/100/2 73/91/3 74/92/4
s 2
f 65/82/5 66/83/6 89/107/7 90/110/8
s 3
f 7/8/9 8/7/10 11/18/11 12/21/12
s off
f 67/85/13 68/86/14 87/105/15 88/106/16
f 91/111/17 92/112/18 79/97/19 80/98/20
s 4
f 9/15/21 10/16/22 4/5/23 3/14/24
f 13/22/25 14/23/26 10/16/22 9/15/21
s off
usemtl lambert3SG
f 69/87/27 70/88/28 85/103/29 86/104/30
s 3
usemtl lambert6SG
f 12/21/12 11/18/11 15/25/31 16/28/32
s off
usemtl lambert3SG
f 77/95/33 78/96/34 93/113/35 94/114/36
s 4
usemtl lambert6SG
f 2/3/37 14/23/26 13/22/25 1/4/38
s off
f 83/101/39 84/102/40 71/89/41 72/90/42
s 3
f 16/28/32 15/25/31 6/9/43 5/10/44
s off
f 75/93/45 76/94/46 95/115/47 96/116/48
f 57/74/49 54/69/50 53/72/51 58/73/52
f 59/75/53 51/66/54 54/69/55 57/74/56
f 52/67/57 51/66/58 59/75/59 60/76/60
s 9
usemtl lambert3SG
f 105/125/61 106/126/62 107/127/63 108/128/64
s off
usemtl lambert6SG
f 41/58/65 34/49/66 33/52/67 42/57/68
f 43/59/69 39/54/70 34/49/71 41/58/72
f 40/55/73 39/54/74 43/59/75 44/60/76
s 10
f 17/29/77 24/38/78 2/3/79 1/4/80
s 11
f 5/1/81 6/2/82 26/40/83 25/39/84
s off
f 46/61/85 45/62/86 38/53/87 37/56/88
f 35/50/89 38/53/90 45/62/91 47/63/92
f 36/51/93 35/50/94 47/63/95 48/64/96
s 12
usemtl lambert3SG
f 110/129/97 109/130/98 111/131/99 112/132/100
s off
usemtl lambert6SG
f 61/77/101 62/78/102 50/65/103 49/68/104
f 55/70/105 50/65/106 62/78/107 63/79/108
f 56/71/109 55/70/110 63/79/111 64/80/112
f 68/86/113 69/87/114 86/104/115 87/105/116
s 2
f 88/106/117 89/108/7 66/84/6 67/85/118
s off
f 84/102/119 85/103/120 70/88/121 71/89/122
s 1
f 72/90/123 73/91/3 82/100/2 83/101/124
s 13
f 21/35/125 4/12/126 42/57/127 33/52/128
s 4
f 4/12/23 10/17/22 41/58/129 42/57/130
s off
f 23/37/131 22/36/132 34/49/133 39/54/134
s 4
f 10/17/22 14/24/26 43/59/135 41/58/129
f 14/24/26 2/3/37 44/60/136 43/59/135
s 10
f 2/3/79 24/38/78 40/55/137 44/60/138
s 3
f 6/2/43 15/26/31 45/62/139 46/61/140
s 11
f 26/40/83 6/2/82 46/61/141 37/56/142
s off
f 28/42/143 27/41/144 38/53/145 35/50/146
s 3
f 15/26/31 11/19/11 47/63/147 45/62/139
f 11/19/11 8/11/10 48/64/148 47/63/147
s 14
f 8/11/149 29/44/150 36/51/151 48/64/152
s off
f 92/112/153 93/113/154 78/96/155 79/97/156
s 2
f 80/98/157 65/81/5 90/109/8 91/111/158
s off
f 76/94/159 77/95/160 94/114/161 95/115/162
s 1
f 96/116/163 81/99/1 74/92/4 75/93/164
s 10
f 17/29/77 1/4/80 58/73/165 53/72/166
s 4
f 1/4/38 13/22/25 57/74/167 58/73/168
s off
f 19/31/169 18/30/170 54/69/171 51/66/172
s 4
f 13/22/25 9/15/21 59/75/173 57/74/167
f 9/15/21 3/14/24 60/76/174 59/75/173
s 13
f 3/14/175 20/32/176 52/67/177 60/76/178
s 3
f 7/13/9 12/20/12 62/78/179 61/77/180
s 14
f 30/45/181 7/13/182 61/77/183 49/68/184
s off
f 32/48/185 31/47/186 50/65/187 55/70/188
s 3
f 12/20/12 16/27/32 63/79/189 62/78/179
f 16/27/32 5/1/44 64/80/190 63/79/189
s 11
f 5/1/81 25/39/84 56/71/191 64/80/192
s 13
f 20/33/176 21/34/125 66/83/193 65/82/194
f 67/85/195 66/84/193 21/35/125 33/52/128
s off
f 33/52/196 34/49/197 68/86/198 67/85/199
f 22/36/200 69/87/201 68/86/202 34/49/203
usemtl lambert3SG
f 22/36/204 23/37/205 70/88/206 69/87/207
usemtl lambert6SG
f 71/89/208 70/88/209 23/37/210 39/54/211
f 72/90/212 71/89/213 39/54/214 40/55/215
s 10
f 24/38/78 73/91/216 72/90/217 40/55/137
f 74/92/218 73/91/216 24/38/78 17/29/77
f 75/93/219 74/92/218 17/29/77 53/72/166
s off
f 53/72/220 54/69/221 76/94/222 75/93/223
f 18/30/224 77/95/225 76/94/226 54/69/227
usemtl lambert3SG
f 18/30/228 19/31/229 78/96/230 77/95/231
usemtl lambert6SG
f 79/97/232 78/96/233 19/31/234 51/66/235
f 80/98/236 79/97/237 51/66/238 52/67/239
s 13
f 20/32/176 65/81/194 80/98/240 52/67/177
s 11
f 25/39/84 26/40/83 82/100/241 81/99/242
f 83/101/243 82/100/241 26/40/83 37/56/142
s off
f 37/56/244 38/53/245 84/102/246 83/101/247
f 27/41/248 85/103/249 84/102/250 38/53/251
usemtl lambert3SG
f 86/104/252 85/103/253 27/41/254 28/42/255
usemtl lambert6SG
f 87/105/256 86/104/257 28/42/258 35/50/259
f 88/106/260 87/105/261 35/50/262 36/51/263
s 14
f 29/44/150 89/108/264 88/106/265 36/51/151
f 90/110/266 89/107/264 29/43/150 30/46/181
f 91/111/267 90/109/266 30/45/181 49/68/184
s off
f 49/68/268 50/65/269 92/112/270 91/111/271
f 31/47/272 93/113/273 92/112/274 50/65/275
usemtl lambert3SG
f 94/114/276 93/113/277 31/47/278 32/48/279
usemtl lambert6SG
f 95/115/280 94/114/281 32/48/282 55/70/283
f 96/116/284 95/115/285 55/70/286 56/71/287
s 11
f 25/39/84 81/99/242 96/116/288 56/71/191
s 4
usemtl lambert3SG
f 3/6/24 4/5/23 98/118/289 97/117/290
s 17
f 4/5/291 21/34/292 99/119/293 98/118/294
s 18
f 21/34/295 20/33/296 100/120/297 99/119/298
s off
f 20/33/299 3/6/300 97/117/301 100/120/302
s 19
f 30/46/303 29/43/304 101/122/305 102/121/306
s 20
f 29/43/307 8/7/308 103/123/309 101/122/310
s 3
f 8/7/10 7/8/9 104/124/311 103/123/312
s off
f 7/8/313 30/46/314 102/121/315 104/124/316
s 4
f 97/117/290 98/118/289 106/126/317 105/125/318
s 17
f 98/118/294 99/119/293 107/127/319 106/126/320
s 18
f 99/119/298 100/120/297 108/128/321 107/127/322
s off
f 114/133/323 113/134/324 115/135/325 116/136/326
s 19
f 102/121/306 101/122/305 109/130/327 110/129/328
s 20
f 101/122/310 103/123/309 111/131/329 109/130/330
s 3
f 103/123/312 104/124/311 112/132/331 111/131/332
s off
f 118/137/333 117/138/334 119/139/335 120/140/336
f 100/120/337 97/117/338 113/134/339 114/133/340
s 4
f 97/117/290 105/125/318 115/135/341 113/134/342
s 9
f 105/125/61 108/128/64 116/136/343 115/135/344
s 18
f 108/128/321 100/120/297 114/133/345 116/136/346
s off
f 104/124/347 102/121/348 117/138/349 118/137/350
s 19
f 102/121/306 110/129/328 119/139/351 117/138/352
s 12
f 110/129/97 112/132/100 120/140/353 119/139/354
s 3
f 112/132/331 104/124/311 118/137/355 120/140/356
