# This file uses centimeters as units for non-parametric coordinates.

mtllib Fence.mtl
g default
v -0.386940 0.802422 4.112938
v -0.215680 0.802422 4.112938
v -0.386940 1.354234 4.112938
v -0.215680 1.354234 4.112938
v -0.386940 1.354234 -3.264736
v -0.215680 1.354234 -3.264736
v -0.386940 0.802422 -3.264736
v -0.215680 0.802422 -3.264736
v -0.386940 2.541139 4.112938
v -0.215680 2.541139 4.112938
v -0.386940 3.092951 4.112938
v -0.215680 3.092951 4.112938
v -0.386940 3.092951 -3.264736
v -0.215680 3.092951 -3.264736
v -0.386940 2.541139 -3.264736
v -0.215680 2.541139 -3.264736
v -0.205243 -0.081140 4.196611
v -0.048681 -0.081140 4.196611
v -0.205243 3.608715 4.341424
v -0.048681 3.608715 4.341424
v -0.205243 3.608715 3.273295
v -0.048681 3.608715 3.273295
v -0.205243 -0.081140 3.418108
v -0.048681 -0.081140 3.418108
v -0.205243 4.383531 3.917919
v -0.048681 4.383531 3.917919
v -0.048681 4.383531 3.696801
v -0.205243 4.383531 3.696801
v -0.205243 -0.055921 2.933780
v -0.048681 -0.055921 2.933780
v -0.205243 3.636184 2.867800
v -0.048681 3.636184 2.867800
v -0.205243 3.575233 1.801411
v -0.048681 3.575233 1.801411
v -0.205243 -0.100346 2.156546
v -0.048681 -0.100346 2.156546
v -0.205243 4.385571 2.400770
v -0.048681 4.385571 2.400770
v -0.048681 4.372953 2.180013
v -0.205243 4.372953 2.180013
v -0.205243 -0.094216 1.328718
v -0.048681 -0.094216 1.328718
v -0.205243 3.587808 1.609241
v -0.048681 3.587808 1.609241
v -0.205243 3.627121 0.541835
v -0.048681 3.627121 0.541835
v -0.205243 -0.065563 0.550742
v -0.048681 -0.065563 0.550742
v -0.205243 4.377687 1.214540
v -0.048681 4.377687 1.214540
v -0.048681 4.385825 0.993571
v -0.205243 4.385825 0.993571
v -0.205243 -0.081140 0.068429
v -0.048681 -0.081140 0.068429
v -0.205243 3.608715 0.213242
v -0.048681 3.608715 0.213242
v -0.205243 3.608715 -0.854887
v -0.048681 3.608715 -0.854887
v -0.205243 -0.081140 -0.710074
v -0.048681 -0.081140 -0.710074
v -0.205243 4.383531 -0.210264
v -0.048681 4.383531 -0.210264
v -0.048681 4.383531 -0.431382
v -0.205243 4.383531 -0.431382
v -0.205243 -0.081140 -1.243188
v -0.048681 -0.081140 -1.243188
v -0.205243 3.608715 -1.098374
v -0.048681 3.608715 -1.098374
v -0.205243 3.608715 -2.166504
v -0.048681 3.608715 -2.166504
v -0.205243 -0.081140 -2.021691
v -0.048681 -0.081140 -2.021691
v -0.205243 4.383531 -1.521880
v -0.048681 4.383531 -1.521880
v -0.048681 4.383531 -1.742998
v -0.205243 4.383531 -1.742998
v -0.192794 -0.102449 -2.677710
v -0.036416 -0.102507 -2.685306
v -0.172827 3.570278 -2.294723
v -0.016448 3.570220 -2.302320
v -0.224516 3.639462 -3.359356
v -0.068138 3.639403 -3.366952
v -0.230467 -0.052024 -3.453664
v -0.074089 -0.052083 -3.461260
v -0.190600 4.370898 -2.666730
v -0.034222 4.370840 -2.674326
v -0.044922 4.385161 -2.894720
v -0.201300 4.385220 -2.887124
vt 0.375000 0.000000
vt 0.625000 0.000000
vt 0.375000 0.250000
vt 0.625000 0.250000
vt 0.375000 0.500000
vt 0.625000 0.500000
vt 0.375000 0.750000
vt 0.625000 0.750000
vt 0.375000 1.000000
vt 0.625000 1.000000
vt 0.875000 0.000000
vt 0.875000 0.250000
vt 0.125000 0.000000
vt 0.125000 0.250000
vt 0.375000 0.000000
vt 0.625000 0.000000
vt 0.625000 0.250000
vt 0.375000 0.250000
vt 0.625000 0.500000
vt 0.375000 0.500000
vt 0.625000 0.750000
vt 0.375000 0.750000
vt 0.625000 1.000000
vt 0.375000 1.000000
vt 0.875000 0.000000
vt 0.875000 0.250000
vt 0.125000 0.000000
vt 0.125000 0.250000
vt 0.375000 0.000000
vt 0.625000 0.000000
vt 0.625000 0.250000
vt 0.375000 0.250000
vt 0.375000 0.250000
vt 0.625000 0.250000
vt 0.625000 0.500000
vt 0.375000 0.500000
vt 0.375000 0.500000
vt 0.625000 0.500000
vt 0.625000 0.750000
vt 0.375000 0.750000
vt 0.625000 1.000000
vt 0.375000 1.000000
vt 0.875000 0.000000
vt 0.875000 0.250000
vt 0.125000 0.000000
vt 0.125000 0.250000
vt 0.375000 0.000000
vt 0.625000 0.000000
vt 0.625000 0.250000
vt 0.375000 0.250000
vt 0.375000 0.250000
vt 0.625000 0.250000
vt 0.625000 0.500000
vt 0.375000 0.500000
vt 0.375000 0.500000
vt 0.625000 0.500000
vt 0.625000 0.750000
vt 0.375000 0.750000
vt 0.625000 1.000000
vt 0.375000 1.000000
vt 0.875000 0.000000
vt 0.875000 0.250000
vt 0.125000 0.000000
vt 0.125000 0.250000
vt 0.375000 0.000000
vt 0.625000 0.000000
vt 0.625000 0.250000
vt 0.375000 0.250000
vt 0.375000 0.250000
vt 0.625000 0.250000
vt 0.625000 0.500000
vt 0.375000 0.500000
vt 0.375000 0.500000
vt 0.625000 0.500000
vt 0.625000 0.750000
vt 0.375000 0.750000
vt 0.625000 1.000000
vt 0.375000 1.000000
vt 0.875000 0.000000
vt 0.875000 0.250000
vt 0.125000 0.000000
vt 0.125000 0.250000
vt 0.375000 0.000000
vt 0.625000 0.000000
vt 0.625000 0.250000
vt 0.375000 0.250000
vt 0.375000 0.250000
vt 0.625000 0.250000
vt 0.625000 0.500000
vt 0.375000 0.500000
vt 0.375000 0.500000
vt 0.625000 0.500000
vt 0.625000 0.750000
vt 0.375000 0.750000
vt 0.625000 1.000000
vt 0.375000 1.000000
vt 0.875000 0.000000
vt 0.875000 0.250000
vt 0.125000 0.000000
vt 0.125000 0.250000
vt 0.375000 0.000000
vt 0.625000 0.000000
vt 0.625000 0.250000
vt 0.375000 0.250000
vt 0.375000 0.250000
vt 0.625000 0.250000
vt 0.625000 0.500000
vt 0.375000 0.500000
vt 0.375000 0.500000
vt 0.625000 0.500000
vt 0.625000 0.750000
vt 0.375000 0.750000
vt 0.625000 1.000000
vt 0.375000 1.000000
vt 0.875000 0.000000
vt 0.875000 0.250000
vt 0.125000 0.000000
vt 0.125000 0.250000
vt 0.375000 0.000000
vt 0.625000 0.000000
vt 0.625000 0.250000
vt 0.375000 0.250000
vt 0.375000 0.250000
vt 0.625000 0.250000
vt 0.625000 0.500000
vt 0.375000 0.500000
vt 0.375000 0.500000
vt 0.625000 0.500000
vt 0.625000 0.750000
vt 0.375000 0.750000
vt 0.625000 1.000000
vt 0.375000 1.000000
vt 0.875000 0.000000
vt 0.875000 0.250000
vt 0.125000 0.000000
vt 0.125000 0.250000
vn 0.000000 0.000000 1.000000
vn 0.000000 0.000000 1.000000
vn 0.000000 0.000000 1.000000
vn 0.000000 0.000000 1.000000
vn 0.000000 1.000000 0.000000
vn 0.000000 1.000000 0.000000
vn 0.000000 1.000000 0.000000
vn 0.000000 1.000000 0.000000
vn 0.000000 0.000000 -1.000000
vn 0.000000 0.000000 -1.000000
vn 0.000000 0.000000 -1.000000
vn 0.000000 0.000000 -1.000000
vn 0.000000 -1.000000 0.000000
vn 0.000000 -1.000000 0.000000
vn 0.000000 -1.000000 0.000000
vn 0.000000 -1.000000 0.000000
vn 1.000000 0.000000 0.000000
vn 1.000000 0.000000 0.000000
vn 1.000000 0.000000 0.000000
vn 1.000000 0.000000 0.000000
vn -1.000000 0.000000 0.000000
vn -1.000000 0.000000 0.000000
vn -1.000000 0.000000 0.000000
vn -1.000000 0.000000 0.000000
vn 0.000000 0.000000 1.000000
vn 0.000000 0.000000 1.000000
vn 0.000000 0.000000 1.000000
vn 0.000000 0.000000 1.000000
vn 0.000000 1.000000 0.000000
vn 0.000000 1.000000 0.000000
vn 0.000000 1.000000 0.000000
vn 0.000000 1.000000 0.000000
vn 0.000000 0.000000 -1.000000
vn 0.000000 0.000000 -1.000000
vn 0.000000 0.000000 -1.000000
vn 0.000000 0.000000 -1.000000
vn 0.000000 -1.000000 0.000000
vn 0.000000 -1.000000 0.000000
vn 0.000000 -1.000000 0.000000
vn 0.000000 -1.000000 0.000000
vn 1.000000 0.000000 0.000000
vn 1.000000 0.000000 0.000000
vn 1.000000 0.000000 0.000000
vn 1.000000 0.000000 0.000000
vn -1.000000 0.000000 0.000000
vn -1.000000 0.000000 0.000000
vn -1.000000 0.000000 0.000000
vn -1.000000 0.000000 0.000000
vn 0.000000 -0.039216 0.999231
vn 0.000000 -0.039216 0.999231
vn 0.000000 0.062300 0.998058
vn 0.000000 0.062300 0.998058
vn 0.000000 1.000000 0.000000
vn 0.000000 1.000000 0.000000
vn 0.000000 1.000000 0.000000
vn 0.000000 1.000000 0.000000
vn 0.000000 0.062300 -0.998058
vn 0.000000 0.062300 -0.998058
vn 0.000000 -0.039216 -0.999231
vn 0.000000 -0.039216 -0.999231
vn 0.000000 -1.000000 0.000000
vn 0.000000 -1.000000 0.000000
vn 0.000000 -1.000000 0.000000
vn 0.000000 -1.000000 0.000000
vn 1.000000 0.000000 0.000000
vn 1.000000 0.000000 0.000000
vn 1.000000 0.000000 0.000000
vn 1.000000 0.000000 0.000000
vn -1.000000 0.000000 0.000000
vn -1.000000 0.000000 0.000000
vn -1.000000 0.000000 0.000000
vn -1.000000 0.000000 0.000000
vn 0.000000 0.479618 0.877477
vn 0.000000 0.479618 0.877477
vn 1.000000 0.000000 0.000000
vn 1.000000 0.000000 0.000000
vn 0.000000 0.479618 -0.877477
vn 0.000000 0.479618 -0.877477
vn -1.000000 0.000001 0.000000
vn -1.000000 0.000001 0.000000
vn 0.000000 0.017868 0.999840
vn 0.000000 0.017868 0.999840
vn 0.000000 0.119152 0.992876
vn 0.000000 0.119152 0.992876
vn 0.000000 0.998370 -0.057065
vn 0.000000 0.998370 -0.057065
vn 0.000000 0.998370 -0.057065
vn 0.000000 0.998370 -0.057065
vn 0.000000 0.005246 -0.999986
vn 0.000000 0.005246 -0.999986
vn 0.000000 -0.096172 -0.995365
vn 0.000000 -0.096172 -0.995365
vn 0.000000 -0.998371 0.057064
vn 0.000000 -0.998371 0.057064
vn 0.000000 -0.998371 0.057064
vn 0.000000 -0.998371 0.057064
vn 1.000000 0.000000 0.000000
vn 1.000000 0.000000 0.000000
vn 1.000000 0.000000 0.000000
vn 1.000000 0.000000 0.000000
vn -1.000000 -0.000000 0.000000
vn -1.000000 -0.000000 0.000000
vn -1.000000 0.000000 0.000000
vn -1.000000 0.000000 0.000000
vn 0.000000 0.528908 0.848679
vn 0.000000 0.528908 0.848679
vn 1.000000 0.000000 0.000000
vn 1.000000 0.000000 0.000000
vn 0.000000 0.428764 -0.903417
vn 0.000000 0.428764 -0.903417
vn -1.000000 0.000002 0.000000
vn -1.000000 0.000002 0.000000
vn 0.000000 -0.075967 0.997110
vn 0.000000 -0.075967 0.997110
vn 0.000000 0.025524 0.999674
vn 0.000000 0.025524 0.999674
vn 0.000000 0.999323 0.036804
vn 0.000000 0.999323 0.036804
vn 0.000000 0.999323 0.036804
vn 0.000000 0.999323 0.036804
vn 0.000000 0.098992 -0.995088
vn 0.000000 0.098992 -0.995088
vn 0.000000 -0.002412 -0.999997
vn 0.000000 -0.002412 -0.999997
vn 0.000000 -0.999322 -0.036806
vn 0.000000 -0.999322 -0.036806
vn 0.000000 -0.999322 -0.036806
vn 0.000000 -0.999322 -0.036806
vn 1.000000 -0.000000 0.000000
vn 1.000000 -0.000000 0.000000
vn 1.000000 0.000000 0.000000
vn 1.000000 0.000000 0.000000
vn -1.000000 -0.000000 0.000000
vn -1.000000 -0.000000 0.000000
vn -1.000000 -0.000000 0.000000
vn -1.000000 -0.000000 0.000000
vn 0.000000 0.446999 0.894535
vn 0.000000 0.446999 0.894535
vn 1.000000 0.000001 0.000000
vn 1.000000 0.000001 0.000000
vn 0.000000 0.511589 -0.859230
vn 0.000000 0.511589 -0.859230
vn -1.000000 0.000000 0.000000
vn -1.000000 0.000000 0.000000
vn 0.000000 -0.039216 0.999231
vn 0.000000 -0.039216 0.999231
vn 0.000000 0.062300 0.998058
vn 0.000000 0.062300 0.998058
vn 0.000000 1.000000 0.000000
vn 0.000000 1.000000 0.000000
vn 0.000000 1.000000 0.000000
vn 0.000000 1.000000 0.000000
vn 0.000000 0.062300 -0.998058
vn 0.000000 0.062300 -0.998058
vn 0.000000 -0.039216 -0.999231
vn 0.000000 -0.039216 -0.999231
vn 0.000000 -1.000000 0.000000
vn 0.000000 -1.000000 0.000000
vn 0.000000 -1.000000 0.000000
vn 0.000000 -1.000000 0.000000
vn 1.000000 -0.000000 0.000000
vn 1.000000 -0.000000 0.000000
vn 1.000000 -0.000000 0.000000
vn 1.000000 -0.000000 0.000000
vn -1.000000 0.000000 0.000000
vn -1.000000 0.000000 0.000000
vn -1.000000 0.000000 0.000000
vn -1.000000 0.000000 0.000000
vn 0.000000 0.479618 0.877477
vn 0.000000 0.479618 0.877477
vn 1.000000 0.000001 0.000000
vn 1.000000 0.000001 0.000000
vn 0.000000 0.479618 -0.877477
vn 0.000000 0.479618 -0.877477
vn -1.000000 0.000001 0.000000
vn -1.000000 0.000001 0.000000
vn 0.000000 -0.039216 0.999231
vn 0.000000 -0.039216 0.999231
vn 0.000000 0.062300 0.998058
vn 0.000000 0.062300 0.998058
vn 0.000000 1.000000 0.000000
vn 0.000000 1.000000 0.000000
vn 0.000000 1.000000 0.000000
vn 0.000000 1.000000 0.000000
vn 0.000000 0.062300 -0.998058
vn 0.000000 0.062300 -0.998058
vn 0.000000 -0.039216 -0.999231
vn 0.000000 -0.039216 -0.999231
vn 0.000000 -1.000000 0.000000
vn 0.000000 -1.000000 0.000000
vn 0.000000 -1.000000 0.000000
vn 0.000000 -1.000000 0.000000
vn 1.000000 0.000000 0.000000
vn 1.000000 0.000000 0.000000
vn 1.000000 0.000000 0.000000
vn 1.000000 0.000000 0.000000
vn -1.000000 0.000000 0.000000
vn -1.000000 0.000000 0.000000
vn -1.000000 0.000000 0.000000
vn -1.000000 0.000000 0.000000
vn 0.000000 0.479618 0.877477
vn 0.000000 0.479618 0.877477
vn 1.000000 0.000000 0.000000
vn 1.000000 0.000000 0.000000
vn 0.000000 0.479618 -0.877477
vn 0.000000 0.479618 -0.877477
vn -1.000000 0.000001 0.000000
vn -1.000000 0.000001 0.000000
vn 0.048217 -0.103855 0.993423
vn 0.048217 -0.103855 0.993423
vn 0.048516 -0.002475 0.998819
vn 0.048516 -0.002475 0.998819
vn 0.003513 0.997900 0.064677
vn 0.003513 0.997900 0.064677
vn 0.003513 0.997900 0.064677
vn 0.003513 0.997900 0.064677
vn -0.048079 0.126815 -0.990761
vn -0.048079 0.126815 -0.990761
vn -0.048492 0.025587 -0.998496
vn -0.048492 0.025587 -0.998496
vn -0.003513 -0.997900 -0.064677
vn -0.003513 -0.997900 -0.064677
vn -0.003513 -0.997900 -0.064677
vn -0.003513 -0.997900 -0.064677
vn 0.998822 -0.000371 -0.048518
vn 0.998822 -0.000371 -0.048518
vn 0.998822 -0.000371 -0.048518
vn 0.998822 -0.000371 -0.048518
vn -0.998822 0.000371 0.048518
vn -0.998822 0.000371 0.048518
vn -0.998822 0.000371 0.048518
vn -0.998822 0.000371 0.048518
vn 0.044146 0.421779 0.905624
vn 0.044146 0.421779 0.905624
vn 0.998822 -0.000370 -0.048518
vn 0.998822 -0.000370 -0.048518
vn -0.040776 0.535447 -0.843584
vn -0.040776 0.535447 -0.843584
vn -0.998822 0.000370 0.048518
vn -0.998822 0.000370 0.048518
s off
g pCube25
usemtl lambert6SG
f 1/1/1 2/2/2 4/4/3 3/3/4
f 3/3/5 4/4/6 6/6/7 5/5/8
f 5/5/9 6/6/10 8/8/11 7/7/12
f 7/7/13 8/8/14 2/10/15 1/9/16
f 2/2/17 8/11/18 6/12/19 4/4/20
f 7/13/21 1/1/22 3/3/23 5/14/24
f 9/15/25 10/16/26 12/17/27 11/18/28
f 11/18/29 12/17/30 14/19/31 13/20/32
f 13/20/33 14/19/34 16/21/35 15/22/36
f 15/22/37 16/21/38 10/23/39 9/24/40
f 10/16/41 16/25/42 14/26/43 12/17/44
f 15/27/45 9/15/46 11/18/47 13/28/48
s 1
f 17/29/49 18/30/50 20/31/51 19/32/52
s off
f 25/33/53 26/34/54 27/35/55 28/36/56
s 2
f 21/37/57 22/38/58 24/39/59 23/40/60
s off
f 23/40/61 24/39/62 18/41/63 17/42/64
s 3
f 18/30/65 24/43/66 22/44/67 20/31/68
s 4
f 23/45/69 17/29/70 19/32/71 21/46/72
s 1
f 19/32/52 20/31/51 26/34/73 25/33/74
s 3
f 20/31/68 22/38/67 27/35/75 26/34/76
s 2
f 22/38/58 21/37/57 28/36/77 27/35/78
s 4
f 21/37/72 19/32/71 25/33/79 28/36/80
s 5
f 29/47/81 30/48/82 32/49/83 31/50/84
s off
f 37/51/85 38/52/86 39/53/87 40/54/88
s 6
f 33/55/89 34/56/90 36/57/91 35/58/92
s off
f 35/58/93 36/57/94 30/59/95 29/60/96
s 7
f 30/48/97 36/61/98 34/62/99 32/49/100
s 8
f 35/63/101 29/47/102 31/50/103 33/64/104
s 5
f 31/50/84 32/49/83 38/52/105 37/51/106
s 7
f 32/49/100 34/56/99 39/53/107 38/52/108
s 6
f 34/56/90 33/55/89 40/54/109 39/53/110
s 8
f 33/55/104 31/50/103 37/51/111 40/54/112
s 9
f 41/65/113 42/66/114 44/67/115 43/68/116
s off
f 49/69/117 50/70/118 51/71/119 52/72/120
s 10
f 45/73/121 46/74/122 48/75/123 47/76/124
s off
f 47/76/125 48/75/126 42/77/127 41/78/128
s 11
f 42/66/129 48/79/130 46/80/131 44/67/132
s 12
f 47/81/133 41/65/134 43/68/135 45/82/136
s 9
f 43/68/116 44/67/115 50/70/137 49/69/138
s 11
f 44/67/132 46/74/131 51/71/139 50/70/140
s 10
f 46/74/122 45/73/121 52/72/141 51/71/142
s 12
f 45/73/136 43/68/135 49/69/143 52/72/144
s 13
f 53/83/145 54/84/146 56/85/147 55/86/148
s off
f 61/87/149 62/88/150 63/89/151 64/90/152
s 14
f 57/91/153 58/92/154 60/93/155 59/94/156
s off
f 59/94/157 60/93/158 54/95/159 53/96/160
s 15
f 54/84/161 60/97/162 58/98/163 56/85/164
s 16
f 59/99/165 53/83/166 55/86/167 57/100/168
s 13
f 55/86/148 56/85/147 62/88/169 61/87/170
s 15
f 56/85/164 58/92/163 63/89/171 62/88/172
s 14
f 58/92/154 57/91/153 64/90/173 63/89/174
s 16
f 57/91/168 55/86/167 61/87/175 64/90/176
s 17
f 65/101/177 66/102/178 68/103/179 67/104/180
s off
f 73/105/181 74/106/182 75/107/183 76/108/184
s 18
f 69/109/185 70/110/186 72/111/187 71/112/188
s off
f 71/112/189 72/111/190 66/113/191 65/114/192
s 19
f 66/102/193 72/115/194 70/116/195 68/103/196
s 20
f 71/117/197 65/101/198 67/104/199 69/118/200
s 17
f 67/104/180 68/103/179 74/106/201 73/105/202
s 19
f 68/103/196 70/110/195 75/107/203 74/106/204
s 18
f 70/110/186 69/109/185 76/108/205 75/107/206
s 20
f 69/109/200 67/104/199 73/105/207 76/108/208
s 21
f 77/119/209 78/120/210 80/121/211 79/122/212
s off
f 85/123/213 86/124/214 87/125/215 88/126/216
s 22
f 81/127/217 82/128/218 84/129/219 83/130/220
s off
f 83/130/221 84/129/222 78/131/223 77/132/224
s 23
f 78/120/225 84/133/226 82/134/227 80/121/228
s 24
f 83/135/229 77/119/230 79/122/231 81/136/232
s 21
f 79/122/212 80/121/211 86/124/233 85/123/234
s 23
f 80/121/228 82/128/227 87/125/235 86/124/236
s 22
f 82/128/218 81/127/217 88/126/237 87/125/238
s 24
f 81/127/232 79/122/231 85/123/239 88/126/240
