# This file uses centimeters as units for non-parametric coordinates.

mtllib WoodPlank.mtl
g default
v -0.695339 -0.066668 3.562896
v 0.726824 -0.066668 3.562896
v -0.695339 0.141916 3.562896
v 0.726824 0.141916 3.562896
v -0.695339 0.141916 -3.562896
v 0.726824 0.141916 -3.562896
v -0.695339 -0.066668 -3.562896
v 0.726824 -0.066668 -3.562896
v -0.410906 -0.066668 3.562896
v -0.410906 -0.066668 -3.562896
v -0.410906 0.141916 -3.562896
v -0.410906 0.141916 3.562896
v -0.232599 -0.066668 -4.596555
v -0.232599 0.141916 -4.596555
v 0.726824 0.141916 -4.596555
v 0.726824 -0.066668 -4.596555
v -0.695339 0.141916 -4.579129
v -0.410906 0.141916 -4.579129
v -0.410906 -0.066668 -4.579129
v -0.695339 -0.066668 -4.579129
v 0.120060 -0.066668 3.562896
v 0.120060 0.141916 3.562896
v 0.120060 0.141916 -3.562896
v 0.215153 0.141916 -4.596555
v 0.215153 -0.066668 -4.596555
v 0.120060 -0.066668 -3.562896
v -0.410906 0.141916 4.319918
v -0.410906 -0.066668 4.319918
v 0.057596 -0.066668 4.319918
v 0.057596 0.141916 4.319918
v -0.695339 -0.066668 4.319918
v -0.695339 0.141916 4.319918
v 0.182361 -0.066668 4.271915
v 0.182361 0.141916 4.271915
v 0.726824 -0.066668 4.271915
v 0.726824 0.141916 4.271915
vt 0.375000 0.000000
vt 0.625000 0.000000
vt 0.375000 0.250000
vt 0.625000 0.250000
vt 0.375000 0.500000
vt 0.625000 0.500000
vt 0.375000 0.750000
vt 0.625000 0.750000
vt 0.375000 1.000000
vt 0.625000 1.000000
vt 0.875000 0.000000
vt 0.875000 0.250000
vt 0.125000 0.000000
vt 0.125000 0.250000
vt 0.425000 0.000000
vt 0.425000 1.000000
vt 0.425000 0.750000
vt 0.425000 0.500000
vt 0.425000 0.250000
vt 0.425000 0.750000
vt 0.425000 0.500000
vt 0.625000 0.500000
vt 0.625000 0.750000
vt 0.375000 0.500000
vt 0.425000 0.500000
vt 0.425000 0.750000
vt 0.375000 0.750000
vt 0.518338 0.000000
vt 0.518338 1.000000
vt 0.518338 0.250000
vt 0.518338 0.500000
vt 0.518338 0.500000
vt 0.518338 0.750000
vt 0.518338 0.750000
vt 0.425000 0.000000
vt 0.518338 0.000000
vt 0.518338 0.250000
vt 0.425000 0.250000
vt 0.375000 0.000000
vt 0.375000 0.250000
vt 0.518338 0.250000
vt 0.518338 0.000000
vt 0.625000 0.000000
vt 0.625000 0.250000
vn 0.000000 0.000000 1.000000
vn 0.000000 0.000000 1.000000
vn 0.000000 0.000000 1.000000
vn 0.000000 0.000000 1.000000
vn 0.000000 1.000000 0.000000
vn 0.000000 1.000000 0.000000
vn 0.000000 1.000000 0.000000
vn 0.000000 1.000000 0.000000
vn 0.000000 0.000000 -1.000000
vn 0.000000 0.000000 -1.000000
vn 0.000000 0.000000 -1.000000
vn 0.000000 0.000000 -1.000000
vn 0.000000 -1.000000 0.000000
vn 0.000000 -1.000000 0.000000
vn 0.000000 -1.000000 0.000000
vn 0.000000 -1.000000 0.000000
vn 1.000000 0.000000 0.000000
vn 1.000000 0.000000 0.000000
vn 1.000000 0.000000 0.000000
vn 1.000000 0.000000 0.000000
vn -1.000000 0.000000 0.000000
vn -1.000000 0.000000 0.000000
vn -1.000000 0.000000 0.000000
vn -1.000000 0.000000 0.000000
vn 0.000000 -1.000000 0.000000
vn 0.000000 -1.000000 0.000000
vn 0.000000 -1.000000 0.000000
vn 0.000000 0.000000 -1.000000
vn 0.000000 0.000000 -1.000000
vn 0.000000 0.000000 -1.000000
vn 0.000000 0.000000 -1.000000
vn 0.000000 1.000000 0.000000
vn 0.000000 1.000000 0.000000
vn 0.000000 1.000000 0.000000
vn 0.000000 0.000000 1.000000
vn 0.000000 0.000000 1.000000
vn 0.000000 0.000000 1.000000
vn 0.000000 0.000000 1.000000
vn -0.985446 0.000000 -0.169990
vn -0.985446 0.000000 -0.169990
vn -0.985446 0.000000 -0.169990
vn -0.985446 0.000000 -0.169990
vn 0.000000 1.000000 0.000000
vn 0.000000 1.000000 0.000000
vn 1.000000 0.000000 0.000000
vn 1.000000 0.000000 0.000000
vn 0.000000 -1.000000 0.000000
vn 0.000000 -1.000000 0.000000
vn 0.000000 1.000000 0.000000
vn 0.000000 1.000000 0.000000
vn 1.000000 0.000000 0.000000
vn 1.000000 0.000000 0.000000
vn 1.000000 0.000000 0.000000
vn 1.000000 0.000000 0.000000
vn 0.000000 -1.000000 0.000000
vn 0.000000 -1.000000 0.000000
vn -1.000000 0.000000 0.000000
vn -1.000000 0.000000 0.000000
vn 0.000000 0.000000 1.000000
vn 0.000000 0.000000 1.000000
vn 0.000000 0.000000 1.000000
vn 0.000000 0.000000 1.000000
vn 0.000000 1.000000 0.000000
vn 0.000000 1.000000 0.000000
vn 0.000000 1.000000 0.000000
vn 0.000000 1.000000 0.000000
vn 0.000000 1.000000 0.000000
vn 0.000000 1.000000 0.000000
vn 0.000000 0.000000 -1.000000
vn 0.000000 0.000000 -1.000000
vn 0.000000 0.000000 -1.000000
vn 0.000000 0.000000 -1.000000
vn 0.000000 -1.000000 0.000000
vn 0.000000 -1.000000 0.000000
vn 0.000000 -1.000000 0.000000
vn 0.000000 -1.000000 0.000000
vn 0.000000 -1.000000 -0.000000
vn 0.000000 -1.000000 -0.000000
vn 0.000000 -1.000000 0.000000
vn 0.000000 -1.000000 0.000000
vn 0.996613 0.000000 0.082233
vn 0.996613 0.000000 0.082233
vn 0.996613 0.000000 0.082233
vn 0.996613 0.000000 0.082233
vn 0.000000 1.000000 0.000000
vn 0.000000 1.000000 0.000000
vn 0.000000 -1.000000 0.000000
vn 0.000000 1.000000 0.000000
vn -1.000000 0.000000 0.000000
vn -1.000000 0.000000 0.000000
vn -0.996162 0.000000 0.087532
vn -0.996162 0.000000 0.087532
vn -0.996162 0.000000 0.087532
vn -0.996162 0.000000 0.087532
vn 0.000000 -1.000000 -0.000000
vn 0.000000 -1.000000 -0.000000
vn 1.000000 0.000000 0.000000
vn 1.000000 0.000000 0.000000
vn 0.000000 1.000000 0.000000
vn 0.000000 1.000000 0.000000
s off
g pCube27
usemtl lambert10SG
f 27/38/1 28/35/2 29/36/3 30/37/4
s 1
f 11/18/5 12/19/6 22/30/7 23/31/8
s off
f 13/20/9 14/21/10 24/32/11 25/33/12
s 2
f 9/16/13 10/17/14 26/34/15 21/29/16
s 3
f 2/2/17 8/11/18 6/12/19 4/4/20
s 4
f 7/13/21 1/1/22 3/3/23 5/14/24
s 2
f 7/7/25 10/17/26 9/16/13 1/9/27
s off
f 17/24/28 18/25/29 19/26/30 20/27/31
s 1
f 3/3/32 12/19/6 11/18/33 5/5/34
s off
f 31/39/35 28/35/36 27/38/37 32/40/38
f 10/17/39 11/18/40 14/21/41 13/20/42
s 1
f 11/18/5 23/31/8 24/32/43 14/21/44
s 3
f 6/6/19 8/8/18 16/23/45 15/22/46
s 2
f 25/33/47 26/34/15 10/17/14 13/20/48
s 1
f 5/5/34 11/18/33 18/25/49 17/24/50
s off
f 11/18/51 10/17/52 19/26/53 18/25/54
s 2
f 10/17/26 7/7/25 20/27/55 19/26/56
s 4
f 7/7/21 5/5/24 17/24/57 20/27/58
s off
f 34/41/59 33/42/60 35/43/61 36/44/62
s 7
f 23/31/63 22/30/64 4/4/65 6/6/66
f 24/32/67 23/31/63 6/6/66 15/22/68
s off
f 25/33/69 24/32/70 15/22/71 16/23/72
s 8
f 8/8/73 26/34/74 25/33/75 16/23/76
f 21/29/77 26/34/74 8/8/73 2/10/78
s 2
f 9/15/13 21/28/16 29/36/79 28/35/80
s off
f 21/28/81 22/30/82 30/37/83 29/36/84
s 1
f 22/30/7 12/19/6 27/38/85 30/37/86
s 2
f 1/1/27 9/15/13 28/35/80 31/39/87
s 1
f 12/19/6 3/3/32 32/40/88 27/38/85
s 4
f 3/3/23 1/1/22 31/39/89 32/40/90
s off
f 22/30/91 21/28/92 33/42/93 34/41/94
s 8
f 21/28/77 2/2/78 35/43/95 33/42/96
s 3
usemtl initialShadingGroup
f 2/2/17 4/4/20 36/44/97 35/43/98
s 7
usemtl lambert10SG
f 4/4/65 22/30/64 34/41/99 36/44/100
